<svg width="14" height="14" viewBox="0 0 14 14" fill="none" xmlns="http://www.w3.org/2000/svg">
<path d="M7.48401 1.479C8.12126 3.94927 10.0508 5.87888 12.5211 6.51611V7.48389C10.0508 8.12112 8.12124 10.0507 7.48401 12.521H6.51624C5.87901 10.0507 3.94939 8.12114 1.47913 7.48389V6.51611C3.94939 5.87887 5.87899 3.94927 6.51624 1.479H7.48401ZM6.99963 3.08447C6.20209 4.8127 4.81282 6.20197 3.08459 6.99951C4.81275 7.79696 6.20202 9.18649 6.99963 10.9146C7.79715 9.18653 9.18665 7.79703 10.9147 6.99951C9.18661 6.2019 7.79708 4.81263 6.99963 3.08447ZM10.9381 1.604C10.9382 2.27324 11.7075 3.06074 12.3951 3.06104C11.681 3.06131 10.9381 3.84163 10.9381 4.51904C10.9381 3.8372 10.149 3.06127 9.48108 3.06104C10.1754 3.06081 10.9381 2.27327 10.9381 1.604Z" fill="#6F6F6F"/>
</svg>
