<svg width="14" height="14" viewBox="0 0 14 14" fill="none" xmlns="http://www.w3.org/2000/svg">
<path d="M7.38733 1.50439C8.03375 4.00976 9.99031 5.9665 12.4957 6.61279V7.38721C9.99018 8.03353 8.03365 9.99006 7.38733 12.4956H6.61292C5.96662 9.99018 4.00988 8.03363 1.50452 7.38721V6.61279C4.00985 5.96642 5.96654 4.00973 6.61292 1.50439H7.38733ZM6.99963 2.83838C6.2001 4.70828 4.7084 6.19998 2.8385 6.99951C4.70831 7.79895 6.20002 9.29093 6.99963 11.1606C7.79916 9.29098 9.2911 7.79904 11.1608 6.99951C9.29105 6.19989 7.79908 4.70819 6.99963 2.83838ZM10.9381 1.604C10.9382 2.27324 11.7075 3.06074 12.3951 3.06104C11.681 3.06131 10.9381 3.84163 10.9381 4.51904C10.9381 3.8372 10.149 3.06127 9.48108 3.06104C10.1754 3.06081 10.9381 2.27327 10.9381 1.604Z" fill="currentColor"/>
</svg>
