<svg width="18" height="19" viewBox="0 0 18 19" fill="none" xmlns="http://www.w3.org/2000/svg">
<path d="M15.1875 3.3125H5.0625C4.76413 3.3125 4.47798 3.43103 4.267 3.642C4.05603 3.85298 3.9375 4.13913 3.9375 4.4375V5.5625H2.8125C2.51413 5.5625 2.22798 5.68103 2.017 5.892C1.80603 6.10298 1.6875 6.38913 1.6875 6.6875V14.5625C1.6875 14.8609 1.80603 15.147 2.017 15.358C2.22798 15.569 2.51413 15.6875 2.8125 15.6875H12.9375C13.2359 15.6875 13.522 15.569 13.733 15.358C13.944 15.147 14.0625 14.8609 14.0625 14.5625V13.4375H15.1875C15.4859 13.4375 15.772 13.319 15.983 13.108C16.194 12.897 16.3125 12.6109 16.3125 12.3125V4.4375C16.3125 4.13913 16.194 3.85298 15.983 3.642C15.772 3.43103 15.4859 3.3125 15.1875 3.3125ZM12.9375 6.6875V7.8125H2.8125V6.6875H12.9375ZM12.9375 14.5625H2.8125V8.9375H12.9375V14.5625ZM15.1875 12.3125H14.0625V6.6875C14.0625 6.38913 13.944 6.10298 13.733 5.892C13.522 5.68103 13.2359 5.5625 12.9375 5.5625H5.0625V4.4375H15.1875V12.3125Z" fill="#6F6F6F"/>
</svg>
