<svg width="20" height="20" viewBox="0 0 20 20" fill="none" xmlns="http://www.w3.org/2000/svg">
<path d="M17.75 9.875C17.75 5.66351 14.3365 2.25 10.125 2.25C5.91351 2.25 2.5 5.66351 2.5 9.875C2.5 14.0865 5.91351 17.5 10.125 17.5C14.3365 17.5 17.75 14.0865 17.75 9.875ZM18.75 9.875C18.75 14.6388 14.8888 18.5 10.125 18.5C5.36122 18.5 1.5 14.6388 1.5 9.875C1.5 5.11122 5.36122 1.25 10.125 1.25C14.8888 1.25 18.75 5.11122 18.75 9.875Z" fill="currentColor"/>
<path d="M9.3282 5.72638H10.3282V10.2L13.8253 12.286L13.3126 13.1453L12.8839 12.8885L9.3282 10.7674V5.72638Z" fill="currentColor"/>
</svg>
