<svg width="14" height="14" viewBox="0 0 14 14" fill="none" xmlns="http://www.w3.org/2000/svg">
<path d="M6.99997 7.81663L4.14163 10.675C4.03469 10.7819 3.89858 10.8354 3.7333 10.8354C3.56802 10.8354 3.43191 10.7819 3.32497 10.675C3.21802 10.568 3.16455 10.4319 3.16455 10.2666C3.16455 10.1014 3.21802 9.96525 3.32497 9.8583L6.1833 6.99997L3.32497 4.14163C3.21802 4.03469 3.16455 3.89858 3.16455 3.7333C3.16455 3.56802 3.21802 3.43191 3.32497 3.32497C3.43191 3.21802 3.56802 3.16455 3.7333 3.16455C3.89858 3.16455 4.03469 3.21802 4.14163 3.32497L6.99997 6.1833L9.8583 3.32497C9.96525 3.21802 10.1014 3.16455 10.2666 3.16455C10.4319 3.16455 10.568 3.21802 10.675 3.32497C10.7819 3.43191 10.8354 3.56802 10.8354 3.7333C10.8354 3.89858 10.7819 4.03469 10.675 4.14163L7.81663 6.99997L10.675 9.8583C10.7819 9.96525 10.8354 10.1014 10.8354 10.2666C10.8354 10.4319 10.7819 10.568 10.675 10.675C10.568 10.7819 10.4319 10.8354 10.2666 10.8354C10.1014 10.8354 9.96525 10.7819 9.8583 10.675L6.99997 7.81663Z" fill="white"/>
</svg>
