<svg width="144" height="144" viewBox="0 0 144 144" fill="none" xmlns="http://www.w3.org/2000/svg">
<path d="M141.137 60.8571V83.7143L72.0518 123.611V100.754L113.663 76.7086L121.343 72.2857L141.137 60.8571Z" stroke="#606060" stroke-width="0.5" stroke-linecap="round" stroke-linejoin="round"/>
<path d="M71.6172 20.7086L2.52002 60.5943L22.3143 72.0229L30.04 76.4914L72.0515 100.743L113.663 76.7086L121.343 72.2743L141.137 60.8457L71.6172 20.7086ZM113.617 67.8286L105.937 72.2629L71.9943 91.8629L37.72 72.0686L29.9943 67.6114L17.9258 60.64L71.6629 29.6114L125.731 60.8343L113.617 67.8286Z" stroke="#606060" stroke-width="0.5" stroke-linecap="round" stroke-linejoin="round"/>
<path d="M71.6628 29.6114V52.4686L37.7201 72.0686L29.9944 67.6114L17.9258 60.64L71.6628 29.6114Z" stroke="#606060" stroke-width="0.5" stroke-linecap="round" stroke-linejoin="round"/>
<path d="M125.732 60.8343L113.617 67.8286L105.937 72.2629L71.6631 52.4686V29.6114L125.732 60.8343Z" stroke="#606060" stroke-width="0.5" stroke-linecap="round" stroke-linejoin="round"/>
<path d="M72.0515 100.754V123.611L2.52002 83.4629V60.6057L22.3143 72.0343L30.04 76.4914L72.0515 100.754Z" stroke="#606060" stroke-width="0.5" stroke-linecap="round" stroke-linejoin="round"/>
</svg>
