<svg width="26" height="19" viewBox="0 0 26 19" fill="none" xmlns="http://www.w3.org/2000/svg">
<path d="M0 1.5C0 1.23478 0.105357 0.98043 0.292893 0.792893C0.48043 0.605357 0.734784 0.5 1 0.5H23C23.2652 0.5 23.5196 0.605357 23.7071 0.792893C23.8946 0.98043 24 1.23478 24 1.5C24 1.76522 23.8946 2.01957 23.7071 2.20711C23.5196 2.39464 23.2652 2.5 23 2.5H1C0.734784 2.5 0.48043 2.39464 0.292893 2.20711C0.105357 2.01957 0 1.76522 0 1.5ZM1 10.5H10C10.2652 10.5 10.5196 10.3946 10.7071 10.2071C10.8946 10.0196 11 9.76522 11 9.5C11 9.23478 10.8946 8.98043 10.7071 8.79289C10.5196 8.60536 10.2652 8.5 10 8.5H1C0.734784 8.5 0.48043 8.60536 0.292893 8.79289C0.105357 8.98043 0 9.23478 0 9.5C0 9.76522 0.105357 10.0196 0.292893 10.2071C0.48043 10.3946 0.734784 10.5 1 10.5ZM12 16.5H1C0.734784 16.5 0.48043 16.6054 0.292893 16.7929C0.105357 16.9804 0 17.2348 0 17.5C0 17.7652 0.105357 18.0196 0.292893 18.2071C0.48043 18.3946 0.734784 18.5 1 18.5H12C12.2652 18.5 12.5196 18.3946 12.7071 18.2071C12.8946 18.0196 13 17.7652 13 17.5C13 17.2348 12.8946 16.9804 12.7071 16.7929C12.5196 16.6054 12.2652 16.5 12 16.5ZM25.7075 18.2075C25.6146 18.3005 25.5043 18.3742 25.3829 18.4246C25.2615 18.4749 25.1314 18.5008 25 18.5008C24.8686 18.5008 24.7385 18.4749 24.6171 18.4246C24.4957 18.3742 24.3854 18.3005 24.2925 18.2075L21.75 15.67C20.716 16.3522 19.4657 16.6262 18.2412 16.4391C17.0167 16.252 15.9052 15.617 15.1222 14.6572C14.3392 13.6973 13.9403 12.481 14.0029 11.2439C14.0655 10.0067 14.5851 8.83686 15.461 7.96096C16.3369 7.08505 17.5067 6.56546 18.7439 6.50288C19.981 6.44029 21.1973 6.83915 22.1572 7.62219C23.117 8.40522 23.752 9.51667 23.9391 10.7412C24.1262 11.9657 23.8522 13.216 23.17 14.25L25.7075 16.7875C25.8012 16.8805 25.8756 16.9911 25.9264 17.1129C25.9772 17.2348 26.0033 17.3655 26.0033 17.4975C26.0033 17.6295 25.9772 17.7602 25.9264 17.8821C25.8756 18.0039 25.8012 18.1145 25.7075 18.2075ZM19 14.5C19.5933 14.5 20.1734 14.3241 20.6667 13.9944C21.1601 13.6648 21.5446 13.1962 21.7716 12.6481C21.9987 12.0999 22.0581 11.4967 21.9424 10.9147C21.8266 10.3328 21.5409 9.79824 21.1213 9.37868C20.7018 8.95912 20.1672 8.6734 19.5853 8.55764C19.0033 8.44189 18.4001 8.5013 17.8519 8.72836C17.3038 8.95542 16.8352 9.33994 16.5056 9.83329C16.1759 10.3266 16 10.9067 16 11.5C16 12.2956 16.3161 13.0587 16.8787 13.6213C17.4413 14.1839 18.2044 14.5 19 14.5Z" fill="#6F6F6F"/>
</svg>
