<svg width="13" height="13" viewBox="0 0 13 13" fill="none" xmlns="http://www.w3.org/2000/svg">
<path d="M10.1562 4.0625V5.6875C10.1562 5.79524 10.1134 5.89858 10.0373 5.97476C9.96108 6.05095 9.85774 6.09375 9.75 6.09375C9.64226 6.09375 9.53892 6.05095 9.46274 5.97476C9.38655 5.89858 9.34375 5.79524 9.34375 5.6875V4.46875H8.125C8.01726 4.46875 7.91392 4.42595 7.83774 4.34976C7.76155 4.27358 7.71875 4.17024 7.71875 4.0625C7.71875 3.95476 7.76155 3.85142 7.83774 3.77524C7.91392 3.69905 8.01726 3.65625 8.125 3.65625H9.75C9.85774 3.65625 9.96108 3.69905 10.0373 3.77524C10.1134 3.85142 10.1562 3.95476 10.1562 4.0625ZM4.875 8.53125H3.65625V7.3125C3.65625 7.20476 3.61345 7.10142 3.53726 7.02524C3.46108 6.94905 3.35774 6.90625 3.25 6.90625C3.14226 6.90625 3.03892 6.94905 2.96274 7.02524C2.88655 7.10142 2.84375 7.20476 2.84375 7.3125V8.9375C2.84375 9.04524 2.88655 9.14858 2.96274 9.22476C3.03892 9.30095 3.14226 9.34375 3.25 9.34375H4.875C4.98274 9.34375 5.08608 9.30095 5.16226 9.22476C5.23845 9.14858 5.28125 9.04524 5.28125 8.9375C5.28125 8.82976 5.23845 8.72642 5.16226 8.65024C5.08608 8.57405 4.98274 8.53125 4.875 8.53125ZM11.7812 2.84375V10.1562C11.7812 10.3717 11.6956 10.5784 11.5433 10.7308C11.3909 10.8831 11.1842 10.9688 10.9688 10.9688H2.03125C1.81576 10.9688 1.6091 10.8831 1.45673 10.7308C1.30435 10.5784 1.21875 10.3717 1.21875 10.1562V2.84375C1.21875 2.62826 1.30435 2.4216 1.45673 2.26923C1.6091 2.11685 1.81576 2.03125 2.03125 2.03125H10.9688C11.1842 2.03125 11.3909 2.11685 11.5433 2.26923C11.6956 2.4216 11.7812 2.62826 11.7812 2.84375ZM10.9688 10.1562V2.84375H2.03125V10.1562H10.9688Z" fill="currentColor"/>
</svg>
