<svg width="10" height="10" viewBox="0 0 10 10" fill="none" xmlns="http://www.w3.org/2000/svg">
<path d="M5.75 5.28125C5.75 5.42959 5.70601 5.57459 5.6236 5.69793C5.54119 5.82126 5.42406 5.91739 5.28701 5.97416C5.14997 6.03092 4.99917 6.04578 4.85368 6.01684C4.7082 5.9879 4.57456 5.91647 4.46967 5.81158C4.36478 5.70669 4.29335 5.57305 4.26441 5.42757C4.23547 5.28208 4.25033 5.13128 4.30709 4.99424C4.36386 4.85719 4.45999 4.74006 4.58332 4.65765C4.70666 4.57524 4.85166 4.53125 5 4.53125C5.19891 4.53125 5.38968 4.61027 5.53033 4.75092C5.67098 4.89157 5.75 5.08234 5.75 5.28125ZM9.25 4.53125C9.10166 4.53125 8.95666 4.57524 8.83332 4.65765C8.70999 4.74006 8.61386 4.85719 8.55709 4.99424C8.50033 5.13128 8.48547 5.28208 8.51441 5.42757C8.54335 5.57305 8.61478 5.70669 8.71967 5.81158C8.82456 5.91647 8.9582 5.9879 9.10368 6.01684C9.24917 6.04578 9.39997 6.03092 9.53701 5.97416C9.67406 5.91739 9.79119 5.82126 9.8736 5.69793C9.95601 5.57459 10 5.42959 10 5.28125C10 5.08234 9.92098 4.89157 9.78033 4.75092C9.63968 4.61027 9.44891 4.53125 9.25 4.53125ZM0.75 4.53125C0.601664 4.53125 0.45666 4.57524 0.333323 4.65765C0.209986 4.74006 0.113856 4.85719 0.0570907 4.99424C0.000324965 5.13128 -0.0145275 5.28208 0.0144114 5.42757C0.0433503 5.57305 0.114781 5.70669 0.21967 5.81158C0.32456 5.91647 0.458197 5.9879 0.603683 6.01684C0.749168 6.04578 0.899968 6.03092 1.03701 5.97416C1.17406 5.91739 1.29119 5.82126 1.3736 5.69793C1.45601 5.57459 1.5 5.42959 1.5 5.28125C1.5 5.08234 1.42098 4.89157 1.28033 4.75092C1.13968 4.61027 0.948913 4.53125 0.75 4.53125Z" fill="#B9B9B9"/>
</svg>
