<svg width="97" height="97" viewBox="0 0 97 97" fill="none" xmlns="http://www.w3.org/2000/svg">
<path d="M21.7625 52.6173V66.8395L2.47705 55.7035V41.4813L14.7864 48.5924L21.7625 52.6173Z" stroke="#B9B9B9" stroke-width="0.177778" stroke-linecap="round" stroke-linejoin="round"/>
<path d="M40.934 41.5453V50.4556L36.3331 53.1151L29.4779 57.0689V62.3809L21.7625 66.8396V52.6173L28.6175 48.6565L36.2833 44.2333L40.934 41.5453Z" stroke="#B9B9B9" stroke-width="0.177778" stroke-linecap="round" stroke-linejoin="round"/>
<path d="M75.6075 52.7098V66.932L67.9348 62.5017V57.14L60.9659 53.1151L56.3152 50.4271V41.5737L60.9232 44.2333L68.6388 48.6848L75.6075 52.7098Z" stroke="#B9B9B9" stroke-width="0.177778" stroke-linecap="round" stroke-linejoin="round"/>
<path d="M40.934 41.5453L36.2833 44.2333L28.6175 48.6564L21.7625 52.6173L14.7864 48.5924L2.47705 41.4813L21.6414 30.4093L29.3144 34.8395L33.9651 37.5204L40.934 41.5453Z" stroke="#B9B9B9" stroke-width="0.177778" stroke-linecap="round" stroke-linejoin="round"/>
<path d="M94.7719 41.6449L82.4555 48.756L75.6075 52.7098L68.6388 48.6848L60.9232 44.2333L56.3152 41.5737L63.1633 37.62L67.7713 34.9604L75.4866 30.5089L94.7719 41.6449Z" stroke="#B9B9B9" stroke-width="0.177778" stroke-linecap="round" stroke-linejoin="round"/>
<path d="M67.7717 26.0573L55.448 33.1685L48.6001 37.1222L41.6312 33.0973L29.3147 25.9862L48.4791 14.9213L67.7717 26.0573Z" stroke="#B9B9B9" stroke-width="0.177778" stroke-linecap="round" stroke-linejoin="round"/>
<path d="M94.7721 41.6449V55.8671L75.6077 66.932V52.7098L82.4557 48.756L94.7721 41.6449Z" stroke="#B9B9B9" stroke-width="0.177778" stroke-miterlimit="10" stroke-linecap="round" stroke-linejoin="round"/>
<path d="M67.9351 57.14V71.3622L48.7708 82.4271V68.2049L55.6186 64.2511L63.2916 59.8209L67.9351 57.14Z" stroke="#B9B9B9" stroke-width="0.177778" stroke-linecap="round" stroke-linejoin="round"/>
<path d="M67.9347 57.14L63.2911 59.8209L55.6182 64.2511L48.7703 68.2049L41.8014 64.18L34.0787 59.7284L29.4778 57.0689L36.333 53.1151L40.9339 50.4556L43.9988 48.6849L48.5996 46.0324L48.6493 46.004L53.2504 48.6636L56.3151 50.4271L60.9658 53.1151L67.9347 57.14Z" stroke="#B9B9B9" stroke-width="0.177778" stroke-linecap="round" stroke-linejoin="round"/>
<path d="M48.7703 68.2049V82.4271L29.4778 71.2911V57.0689L34.0787 59.7284L41.8014 64.18L48.7703 68.2049Z" stroke="#B9B9B9" stroke-width="0.177778" stroke-linecap="round" stroke-linejoin="round"/>
<path d="M67.7717 26.0573V34.9604L63.1637 37.6199L56.3156 41.5737V46.8928L53.2508 48.6635L48.6497 46.0039L48.6001 46.0324V37.1221L55.448 33.1684L67.7717 26.0573Z" stroke="#B9B9B9" stroke-width="0.177778" stroke-linecap="round" stroke-linejoin="round"/>
<path d="M48.6001 37.1222V46.0324L43.9993 48.6849L40.9343 46.9213V41.5453L33.9654 37.5204L29.3147 34.8395V25.9862L41.6312 33.0973L48.6001 37.1222Z" stroke="#B9B9B9" stroke-width="0.177778" stroke-linecap="round" stroke-linejoin="round"/>
</svg>
