<svg width="97" height="96" viewBox="0 0 97 96" fill="none" xmlns="http://www.w3.org/2000/svg">
<path d="M2.35205 40.7645C2.42934 40.72 2.52477 40.72 2.60205 40.7645L21.8872 51.9012C21.9645 51.9459 22.0121 52.0278 22.0122 52.1171V66.3397C22.0121 66.429 21.9645 66.5119 21.8872 66.5565C21.8099 66.6009 21.7144 66.6011 21.6372 66.5565L2.35205 55.4198C2.27489 55.3752 2.2272 55.2931 2.22705 55.204V40.9813L2.23584 40.9159C2.25291 40.853 2.29409 40.798 2.35205 40.7645ZM2.72705 55.0585L21.5122 65.9061V52.2616L2.72705 41.4139V55.0585Z" fill="#B9B9B9"/>
<path d="M40.8094 40.8285C40.8866 40.7841 40.9821 40.784 41.0594 40.8285C41.1366 40.8732 41.1844 40.956 41.1844 41.0453V49.9555C41.1844 50.0447 41.1366 50.1276 41.0594 50.1723L29.7283 56.7123V61.8813C29.7282 61.9703 29.6803 62.0524 29.6033 62.0971L21.8872 66.5565C21.8099 66.6009 21.7144 66.6011 21.6372 66.5565C21.5599 66.5119 21.5125 66.4286 21.5125 66.3393V52.1176C21.5125 52.0283 21.5602 51.9455 21.6375 51.9008L40.8094 40.8285ZM22.0125 52.2611V65.9067L29.2283 61.7358V56.5688C29.2283 56.4794 29.2759 56.3966 29.3533 56.352L36.2078 52.3988L40.6844 49.81V41.4779L22.0125 52.2611Z" fill="#B9B9B9"/>
<path d="M56.1902 40.8569C56.2675 40.8123 56.3629 40.8123 56.4402 40.8569L75.7322 51.9936C75.8095 52.0382 75.8571 52.1203 75.8572 52.2094V66.4321C75.8572 66.5214 75.8095 66.6043 75.7322 66.6489C75.6549 66.6933 75.5594 66.6935 75.4822 66.6489L67.8094 62.2182C67.7322 62.1735 67.6853 62.0906 67.6853 62.0014V56.7846L56.1902 50.144C56.113 50.0994 56.0653 50.0164 56.0652 49.9272V41.0737C56.0652 40.9844 56.1129 40.9016 56.1902 40.8569ZM56.5652 49.7817L68.0603 56.4233C68.1375 56.468 68.1853 56.5509 68.1853 56.6401V61.8569L75.3572 65.9985V52.354L56.5652 41.5063V49.7817Z" fill="#B9B9B9"/>
<path d="M21.5776 29.668C21.6405 29.6514 21.7083 29.6592 21.7661 29.6925L41.0594 40.8285C41.1366 40.8732 41.1844 40.956 41.1844 41.0453C41.1844 41.1346 41.1364 41.2171 41.0591 41.2618L21.8872 52.3341C21.8099 52.3785 21.7144 52.3786 21.6372 52.3341L2.35205 41.1973C2.27488 41.1527 2.22714 41.0705 2.22705 40.9813C2.22705 40.892 2.27473 40.8092 2.35205 40.7645L21.5161 29.6925L21.5776 29.668ZM2.97607 40.9805L21.7612 51.8282L40.4341 41.045L29.1899 34.5557L21.6411 30.1973L2.97607 40.9805Z" fill="#B9B9B9"/>
<path d="M75.4226 29.7677C75.4857 29.7509 75.5541 29.7586 75.6121 29.7921L94.8973 40.9288C94.9743 40.9735 95.0222 41.0556 95.0223 41.1446C95.0223 41.2339 94.9745 41.3167 94.8973 41.3614L75.7322 52.4259C75.6549 52.4705 75.5596 52.4705 75.4822 52.4259L56.1902 41.2901C56.1129 41.2455 56.0652 41.163 56.0652 41.0737C56.0652 40.9844 56.1129 40.9016 56.1902 40.8569L75.3621 29.7921L75.4226 29.7677ZM56.8142 41.0733L75.6072 51.921L94.2723 41.1446L75.4861 30.297L56.8142 41.0733Z" fill="#B9B9B9"/>
<path d="M48.4151 14.1801C48.478 14.1635 48.5457 14.1712 48.6036 14.2045L67.8966 25.3412C67.9737 25.3859 68.0215 25.4679 68.0216 25.557C68.0216 25.6463 67.9739 25.7292 67.8966 25.7738L55.5724 32.8842L55.5733 32.8852L48.7247 36.8383C48.6473 36.883 48.5521 36.883 48.4747 36.8383L29.1895 25.7025C29.1122 25.6579 29.0645 25.575 29.0645 25.4858C29.0647 25.3966 29.1124 25.3145 29.1895 25.2699L48.3536 14.2045L48.4151 14.1801ZM29.8136 25.4858L48.5997 36.3334L67.2716 25.557L48.4786 14.7094L29.8136 25.4858Z" fill="#B9B9B9"/>
<path d="M94.6466 40.9281C94.7238 40.8835 94.82 40.8844 94.8973 40.9288C94.9743 40.9735 95.0222 41.0556 95.0223 41.1446L95.0216 55.3675C95.0214 55.4567 94.9738 55.5388 94.8966 55.5834L75.7322 66.6489C75.6549 66.6933 75.5594 66.6935 75.4822 66.6489C75.4049 66.6042 75.3575 66.5213 75.3575 66.432V52.2093C75.3577 52.1202 75.4054 52.0381 75.4825 51.9935L94.6466 40.9281ZM75.8575 52.3539V65.9984L94.5216 55.222V41.5775L75.8575 52.3539Z" fill="#B9B9B9"/>
<path d="M67.8099 56.4232C67.8871 56.3786 67.9831 56.3789 68.0603 56.4233C68.1375 56.468 68.1853 56.5509 68.1853 56.6401L68.1849 70.8626C68.1847 70.9518 68.1371 71.0339 68.0599 71.0785L48.8958 82.1439C48.8185 82.1885 48.7231 82.1885 48.6458 82.1439C48.5685 82.0992 48.5208 82.0164 48.5208 81.9271V67.7044C48.521 67.6153 48.5687 67.5332 48.6458 67.4886L67.8099 56.4232ZM49.0208 67.849V81.4935L67.6849 70.7171V57.0726L49.0208 67.849Z" fill="#B9B9B9"/>
<path d="M48.5861 45.2618C48.649 45.2454 48.7169 45.2538 48.7746 45.2872L53.3742 47.9464L56.4397 49.71L56.4406 49.711L68.0603 56.4233C68.1375 56.468 68.1853 56.5509 68.1853 56.6401C68.1853 56.7294 68.1371 56.8119 68.0598 56.8565L48.8957 67.921C48.8184 67.9656 48.723 67.9655 48.6457 67.921L33.9533 59.4454L29.3527 56.7852C29.2754 56.7405 29.2283 56.6581 29.2283 56.5688C29.2283 56.4794 29.2759 56.3966 29.3533 56.352L48.4748 45.3155L48.5256 45.2872L48.5861 45.2618ZM44.1233 48.4005L36.4582 52.8311L29.9768 56.5684L34.2033 59.0118L48.7697 67.4161L67.4348 56.6397L56.1902 50.144L53.1252 48.38L48.6486 45.7921L44.1233 48.4005Z" fill="#B9B9B9"/>
<path d="M29.3533 56.352C29.4306 56.3074 29.5255 56.3075 29.6027 56.3521L34.2033 59.0118L48.8957 67.4888C48.9727 67.5335 49.0206 67.6156 49.0207 67.7046V81.9273C49.0207 82.0165 48.973 82.0992 48.8958 82.1439C48.8185 82.1885 48.7231 82.1885 48.6458 82.1439L29.3527 71.0074C29.2756 70.9628 29.2279 70.8806 29.2277 70.7915L29.2283 56.5688L29.2365 56.5034C29.2536 56.4405 29.2953 56.3854 29.3533 56.352ZM29.7277 70.646L48.5207 81.4937V67.8492L41.677 63.896L33.9533 59.4454L29.7277 57.0015V70.646Z" fill="#B9B9B9"/>
<path d="M67.6468 25.3405C67.7241 25.296 67.8193 25.2966 67.8966 25.3412C67.9737 25.3859 68.0215 25.4679 68.0216 25.557L68.0218 34.4606C68.0218 34.5498 67.9741 34.6327 67.8968 34.6774L56.5658 41.2184V46.3932C56.5656 46.4822 56.5178 46.5644 56.4408 46.609L53.3753 48.3795C53.298 48.4242 53.2026 48.4247 53.1252 48.38L48.6263 45.7789C48.5745 45.7845 48.5216 45.7756 48.475 45.7487C48.3979 45.704 48.3501 45.6218 48.35 45.5328V36.6217C48.3501 36.5326 48.3978 36.4505 48.475 36.4059L67.6468 25.3405ZM48.85 36.7662V45.3307L53.2503 47.8746L56.0658 46.2477L56.0652 41.0737C56.0652 40.9844 56.1129 40.9016 56.1902 40.8569L67.5218 34.3151V25.9899L48.85 36.7662Z" fill="#B9B9B9"/>
<path d="M29.1895 25.2699C29.2668 25.2254 29.3623 25.2249 29.4395 25.2694L48.7247 36.4061C48.802 36.4508 48.8496 36.5327 48.8497 36.622V45.5321C48.8497 45.6215 48.8021 45.7043 48.7247 45.7489L44.1241 48.4012C44.0469 48.4458 43.9514 48.4457 43.8741 48.4012L40.8097 46.6376C40.7323 46.593 40.6838 46.511 40.6837 46.4218V41.1893L29.1899 34.5557C29.1126 34.5111 29.0646 34.429 29.0645 34.3397V25.4858C29.0647 25.3966 29.1124 25.3145 29.1895 25.2699ZM29.5645 34.1942L41.0594 40.8285C41.1366 40.8732 41.1844 40.956 41.1844 41.0453L41.1837 46.2762L43.9981 47.8964L48.3497 45.3876V36.7665L29.5645 25.9188V34.1942Z" fill="#B9B9B9"/>
</svg>
