<svg width="8" height="8" viewBox="0 0 8 8" fill="none" xmlns="http://www.w3.org/2000/svg">
<path d="M7.89344 7.37892C7.92722 7.4127 7.95402 7.45281 7.97231 7.49695C7.99059 7.54109 8 7.5884 8 7.63618C8 7.68396 7.99059 7.73127 7.97231 7.77541C7.95402 7.81955 7.92722 7.85966 7.89344 7.89344C7.85966 7.92722 7.81955 7.95402 7.77541 7.97231C7.73127 7.99059 7.68396 8 7.63618 8C7.58841 8 7.5411 7.99059 7.49696 7.97231C7.45282 7.95402 7.41271 7.92722 7.37893 7.89344L3.74278 4.25726C3.70898 4.22349 3.68216 4.18339 3.66386 4.13924C3.64556 4.0951 3.63614 4.04778 3.63614 4C3.63614 3.95221 3.64556 3.9049 3.66386 3.86076C3.68216 3.81661 3.70898 3.77651 3.74278 3.74274L7.37893 0.10656C7.44715 0.0383309 7.53969 -1.90207e-09 7.63618 0C7.73267 1.90207e-09 7.82521 0.0383309 7.89344 0.10656C7.96167 0.17479 8 0.267329 8 0.36382C8 0.460311 7.96167 0.55285 7.89344 0.62108L4.5141 4L7.89344 7.37892ZM0.87796 4L4.2573 0.62108C4.32553 0.55285 4.36386 0.460311 4.36386 0.36382C4.36386 0.267329 4.32553 0.17479 4.2573 0.10656C4.18907 0.0383309 4.09653 7.18915e-10 4.00004 0C3.90355 -7.18915e-10 3.81101 0.0383309 3.74278 0.10656L0.106643 3.74274C0.0728356 3.77651 0.0460158 3.81661 0.0277172 3.86076C0.00941857 3.9049 0 3.95221 0 4C0 4.04778 0.00941857 4.0951 0.0277172 4.13924C0.0460158 4.18339 0.0728356 4.22349 0.106643 4.25726L3.74278 7.89344C3.77657 7.92722 3.81668 7.95402 3.86082 7.97231C3.90496 7.99059 3.95227 8 4.00004 8C4.04782 8 4.09513 7.99059 4.13927 7.97231C4.18341 7.95402 4.22352 7.92722 4.2573 7.89344C4.29108 7.85966 4.31788 7.81955 4.33616 7.77541C4.35445 7.73127 4.36386 7.68396 4.36386 7.63618C4.36386 7.5884 4.35445 7.54109 4.33616 7.49695C4.31788 7.45281 4.29108 7.4127 4.2573 7.37892L0.87796 4Z" fill="#6F6F6F"/>
</svg>
