<svg xmlns="http://www.w3.org/2000/svg" width="14" height="14" viewBox="0 0 14 14" fill="none">
  <path d="M12.6525 6.3541L4.77314 1.53449C4.65691 1.4632 4.52374 1.42424 4.38741 1.42165C4.25108 1.41905 4.11653 1.45291 3.99767 1.51973C3.87944 1.58465 3.78095 1.68031 3.7126 1.7966C3.64426 1.91288 3.6086 2.04547 3.60939 2.18035V11.8196C3.6086 11.9545 3.64426 12.087 3.7126 12.2033C3.78095 12.3196 3.87944 12.4153 3.99767 12.4802C4.11653 12.547 4.25108 12.5809 4.38741 12.5783C4.52374 12.5757 4.65691 12.5367 4.77314 12.4654L12.6525 7.64582C12.7634 7.57842 12.8551 7.48359 12.9187 7.37047C12.9824 7.25735 13.0158 7.12975 13.0158 6.99996C13.0158 6.87018 12.9824 6.74258 12.9187 6.62946C12.8551 6.51634 12.7634 6.42151 12.6525 6.3541ZM12.3102 7.08582L4.4297 11.9054C4.41269 11.9157 4.39322 11.9211 4.37337 11.9211C4.35353 11.9211 4.33406 11.9157 4.31704 11.9054C4.30056 11.8974 4.28668 11.8849 4.27701 11.8693C4.26733 11.8537 4.26225 11.8357 4.26236 11.8174V2.18035C4.26225 2.16202 4.26733 2.14402 4.27701 2.12845C4.28668 2.11287 4.30056 2.10034 4.31704 2.09231C4.33474 2.08244 4.35476 2.07753 4.37501 2.07809C4.39442 2.07878 4.4133 2.08463 4.4297 2.09504L12.3102 6.9141C12.3251 6.92288 12.3376 6.93543 12.3462 6.95049C12.3548 6.96555 12.3594 6.9826 12.3594 6.99996C12.3594 7.01732 12.3548 7.03438 12.3462 7.04944C12.3376 7.0645 12.3251 7.07704 12.3102 7.08582Z" fill="currentColor"/>
</svg>