<svg width="14" height="14" viewBox="0 0 14 14" fill="none" xmlns="http://www.w3.org/2000/svg">
<path d="M12.25 6.99996C12.2501 8.38021 11.7067 9.70498 10.7373 10.6875C9.76798 11.6701 8.45067 12.2314 7.07055 12.25H7C5.65919 12.2533 4.36859 11.7402 3.39609 10.8171C3.35433 10.7776 3.32076 10.7303 3.29729 10.6778C3.27383 10.6254 3.26092 10.5688 3.25933 10.5113C3.25773 10.4539 3.26746 10.3966 3.28797 10.3429C3.30848 10.2892 3.33937 10.2401 3.37887 10.1984C3.41837 10.1566 3.4657 10.123 3.51818 10.0996C3.57065 10.0761 3.62723 10.0632 3.68469 10.0616C3.74215 10.06 3.79937 10.0697 3.85306 10.0902C3.90676 10.1107 3.95589 10.1416 3.99766 10.1811C4.62317 10.771 5.40864 11.1636 6.25594 11.3097C7.10324 11.4558 7.9748 11.3489 8.76175 11.0026C9.54871 10.6562 10.2162 10.0857 10.6807 9.36217C11.1453 8.63868 11.3864 7.79434 11.3739 6.93463C11.3614 6.07492 11.0958 5.23795 10.6104 4.52828C10.125 3.81861 9.44121 3.26771 8.64451 2.94439C7.84782 2.62107 6.97351 2.53966 6.13082 2.71035C5.28813 2.88103 4.51442 3.29624 3.90633 3.9041C3.90186 3.90893 3.89711 3.91349 3.89211 3.91777L2.43852 5.24996H3.9375C4.05353 5.24996 4.16481 5.29605 4.24686 5.3781C4.32891 5.46014 4.375 5.57142 4.375 5.68746C4.375 5.80349 4.32891 5.91477 4.24686 5.99682C4.16481 6.07886 4.05353 6.12496 3.9375 6.12496H1.3125C1.19647 6.12496 1.08519 6.07886 1.00314 5.99682C0.921094 5.91477 0.875 5.80349 0.875 5.68746V3.06246C0.875 2.94642 0.921094 2.83514 1.00314 2.7531C1.08519 2.67105 1.19647 2.62496 1.3125 2.62496C1.42853 2.62496 1.53981 2.67105 1.62186 2.7531C1.70391 2.83514 1.75 2.94642 1.75 3.06246V4.69214L3.29492 3.28121C4.02991 2.54907 4.96533 2.0511 5.9831 1.85016C7.00087 1.64922 8.05536 1.75431 9.01345 2.15218C9.97154 2.55004 10.7903 3.22283 11.3663 4.08563C11.9423 4.94843 12.2498 5.96254 12.25 6.99996Z" fill="currentColor"/>
</svg>
