<svg width="14" height="14" viewBox="0 0 14 14" fill="none" xmlns="http://www.w3.org/2000/svg">
<path d="M10.9375 2.1875H3.0625C2.83044 2.1875 2.60788 2.27969 2.44378 2.44378C2.27969 2.60788 2.1875 2.83044 2.1875 3.0625V10.9375C2.1875 11.1696 2.27969 11.3921 2.44378 11.5562C2.60788 11.7203 2.83044 11.8125 3.0625 11.8125H10.9375C11.1696 11.8125 11.3921 11.7203 11.5562 11.5562C11.7203 11.3921 11.8125 11.1696 11.8125 10.9375V3.0625C11.8125 2.83044 11.7203 2.60788 11.5562 2.44378C11.3921 2.27969 11.1696 2.1875 10.9375 2.1875ZM10.9375 10.9375H3.0625V3.0625H10.9375V10.9375Z" fill="currentColor"/>
</svg>
